<mxfile host="app.diagrams.net" agent="Mozilla/5.0 (Windows NT 10.0; Win64; x64) AppleWebKit/537.36 (KHTML, like Gecko) Chrome/140.0.0.0 Safari/537.36 Edg/140.0.0.0" version="28.2.3">
  <diagram name="Página-1" id="k9Yk6ZPLxcv3KK9TUnO3">
    <mxGraphModel dx="1418" dy="786" grid="1" gridSize="10" guides="1" tooltips="1" connect="1" arrows="1" fold="1" page="1" pageScale="1" pageWidth="827" pageHeight="1169" math="0" shadow="0">
      <root>
        <mxCell id="0" />
        <mxCell id="1" parent="0" />
        <mxCell id="j1OZ1AMPAy66AwUhkmDT-11" value="" style="edgeStyle=orthogonalEdgeStyle;rounded=0;orthogonalLoop=1;jettySize=auto;html=1;" edge="1" parent="1" source="j1OZ1AMPAy66AwUhkmDT-1" target="j1OZ1AMPAy66AwUhkmDT-10">
          <mxGeometry relative="1" as="geometry" />
        </mxCell>
        <mxCell id="j1OZ1AMPAy66AwUhkmDT-1" value="Inicío" style="ellipse;whiteSpace=wrap;html=1;fillColor=#f5f5f5;strokeColor=#666666;gradientColor=#b3b3b3;" vertex="1" parent="1">
          <mxGeometry x="80" y="100" width="120" height="80" as="geometry" />
        </mxCell>
        <mxCell id="j1OZ1AMPAy66AwUhkmDT-2" value="Fim" style="ellipse;whiteSpace=wrap;html=1;fillColor=#f8cecc;gradientColor=#ea6b66;strokeColor=#b85450;" vertex="1" parent="1">
          <mxGeometry x="380" y="640" width="120" height="80" as="geometry" />
        </mxCell>
        <mxCell id="j1OZ1AMPAy66AwUhkmDT-13" value="" style="edgeStyle=orthogonalEdgeStyle;rounded=0;orthogonalLoop=1;jettySize=auto;html=1;" edge="1" parent="1" source="j1OZ1AMPAy66AwUhkmDT-10" target="j1OZ1AMPAy66AwUhkmDT-12">
          <mxGeometry relative="1" as="geometry" />
        </mxCell>
        <mxCell id="j1OZ1AMPAy66AwUhkmDT-10" value="Ler Nota" style="shape=parallelogram;perimeter=parallelogramPerimeter;whiteSpace=wrap;html=1;fixedSize=1;fillColor=#f5f5f5;strokeColor=#666666;gradientColor=#b3b3b3;" vertex="1" parent="1">
          <mxGeometry x="280" y="110" width="120" height="60" as="geometry" />
        </mxCell>
        <mxCell id="j1OZ1AMPAy66AwUhkmDT-16" value="" style="edgeStyle=orthogonalEdgeStyle;rounded=0;orthogonalLoop=1;jettySize=auto;html=1;" edge="1" parent="1" source="j1OZ1AMPAy66AwUhkmDT-12" target="j1OZ1AMPAy66AwUhkmDT-15">
          <mxGeometry relative="1" as="geometry" />
        </mxCell>
        <mxCell id="j1OZ1AMPAy66AwUhkmDT-17" value="sim" style="edgeLabel;html=1;align=center;verticalAlign=middle;resizable=0;points=[];" vertex="1" connectable="0" parent="j1OZ1AMPAy66AwUhkmDT-16">
          <mxGeometry x="-0.1" y="-5" relative="1" as="geometry">
            <mxPoint as="offset" />
          </mxGeometry>
        </mxCell>
        <mxCell id="j1OZ1AMPAy66AwUhkmDT-21" value="" style="edgeStyle=orthogonalEdgeStyle;rounded=0;orthogonalLoop=1;jettySize=auto;html=1;" edge="1" parent="1" source="j1OZ1AMPAy66AwUhkmDT-12" target="j1OZ1AMPAy66AwUhkmDT-20">
          <mxGeometry relative="1" as="geometry" />
        </mxCell>
        <mxCell id="j1OZ1AMPAy66AwUhkmDT-12" value="Nota &amp;gt; 9,5" style="rhombus;whiteSpace=wrap;html=1;fillColor=#f5f5f5;strokeColor=#666666;gradientColor=#b3b3b3;" vertex="1" parent="1">
          <mxGeometry x="360" y="330" width="80" height="80" as="geometry" />
        </mxCell>
        <mxCell id="j1OZ1AMPAy66AwUhkmDT-28" style="edgeStyle=orthogonalEdgeStyle;rounded=0;orthogonalLoop=1;jettySize=auto;html=1;entryX=1;entryY=0.5;entryDx=0;entryDy=0;exitX=0.5;exitY=1;exitDx=0;exitDy=0;" edge="1" parent="1" source="j1OZ1AMPAy66AwUhkmDT-15">
          <mxGeometry relative="1" as="geometry">
            <mxPoint x="450" y="600.5" as="targetPoint" />
            <mxPoint x="670" y="378" as="sourcePoint" />
            <Array as="points">
              <mxPoint x="670" y="400" />
              <mxPoint x="670" y="590" />
              <mxPoint x="450" y="590" />
            </Array>
          </mxGeometry>
        </mxCell>
        <mxCell id="j1OZ1AMPAy66AwUhkmDT-15" value="escrever &quot;passo&quot;" style="shape=parallelogram;perimeter=parallelogramPerimeter;whiteSpace=wrap;html=1;fixedSize=1;fillColor=#f5f5f5;strokeColor=#666666;gradientColor=#b3b3b3;" vertex="1" parent="1">
          <mxGeometry x="660" y="340" width="120" height="60" as="geometry" />
        </mxCell>
        <mxCell id="j1OZ1AMPAy66AwUhkmDT-24" value="" style="edgeStyle=orthogonalEdgeStyle;rounded=0;orthogonalLoop=1;jettySize=auto;html=1;" edge="1" parent="1" source="j1OZ1AMPAy66AwUhkmDT-20" target="j1OZ1AMPAy66AwUhkmDT-23">
          <mxGeometry relative="1" as="geometry">
            <Array as="points">
              <mxPoint x="160" y="593" />
            </Array>
          </mxGeometry>
        </mxCell>
        <mxCell id="j1OZ1AMPAy66AwUhkmDT-20" value="escrever &quot;chumbou&quot;" style="shape=parallelogram;perimeter=parallelogramPerimeter;whiteSpace=wrap;html=1;fixedSize=1;fillColor=#f5f5f5;strokeColor=#666666;gradientColor=#b3b3b3;" vertex="1" parent="1">
          <mxGeometry x="100" y="340" width="120" height="60" as="geometry" />
        </mxCell>
        <mxCell id="j1OZ1AMPAy66AwUhkmDT-22" value="Não&amp;nbsp;" style="text;html=1;align=center;verticalAlign=middle;resizable=0;points=[];autosize=1;strokeColor=none;fillColor=none;" vertex="1" parent="1">
          <mxGeometry x="295" y="348" width="50" height="30" as="geometry" />
        </mxCell>
        <mxCell id="j1OZ1AMPAy66AwUhkmDT-29" value="" style="edgeStyle=orthogonalEdgeStyle;rounded=0;orthogonalLoop=1;jettySize=auto;html=1;" edge="1" parent="1" source="j1OZ1AMPAy66AwUhkmDT-23" target="j1OZ1AMPAy66AwUhkmDT-2">
          <mxGeometry relative="1" as="geometry" />
        </mxCell>
        <mxCell id="j1OZ1AMPAy66AwUhkmDT-23" value="" style="ellipse;whiteSpace=wrap;html=1;fillColor=#f5f5f5;strokeColor=#666666;gradientColor=#b3b3b3;" vertex="1" parent="1">
          <mxGeometry x="430" y="585" width="20" height="15" as="geometry" />
        </mxCell>
      </root>
    </mxGraphModel>
  </diagram>
</mxfile>
